<?xml version="1.0" encoding="utf-8"?><svg version="1.1" id="Layer_1" xmlns="http://www.w3.org/2000/svg" xmlns:xlink="http://www.w3.org/1999/xlink" x="0px" y="0px" viewBox="0 0 122.88 117.35" style="enable-background:new 0 0 122.88 117.35" xml:space="preserve"><g><path d="M7.54,110.97h107.12l-10.3-19.04l-86.91,0L7.54,110.97L7.54,110.97L7.54,110.97z M100.9,85.52L90.75,66.75l-60.17,0 L20.8,85.52L100.9,85.52L100.9,85.52L100.9,85.52z M58.13,0.38c1.57-0.84,3.52-0.25,4.36,1.3c19.97,36.92,39.93,75.29,59.9,112.21 c0.31,0.49,0.49-0.37,0.49,0.25c0,1.77-1.44,3.21-3.23,3.21l-116.44,0v-0.01c-0.5,0-1-0.11-1.47-0.36 c-1.58-0.81-2.2-2.74-1.39-4.31C19.74,75.48,38.63,37.8,58.13,0.38L58.13,0.38z M87.28,60.34L76.97,41.26H43.86l-9.94,19.07H87.28 L87.28,60.34z M73.5,34.85L60.1,10.08L47.2,34.85H73.5L73.5,34.85z"/></g></svg>